<?xml version="1.0" encoding="UTF-8" ?>
<svg version="1.1" width="42" height="42" xmlns="http://www.w3.org/2000/svg" shape-rendering="crispEdges">
<rect x="0" y="0" width="7" height="7" fill="#9BABB2" />
<rect x="7" y="0" width="7" height="7" fill="#9BABB2" />
<rect x="28" y="0" width="7" height="7" fill="#9BABB2" />
<rect x="35" y="0" width="7" height="7" fill="#C7DCD0" />
<rect x="0" y="7" width="7" height="7" fill="#9BABB2" />
<rect x="7" y="7" width="7" height="7" fill="#9BABB2" />
<rect x="14" y="7" width="7" height="7" fill="#9BABB2" />
<rect x="28" y="7" width="7" height="7" fill="#9BABB2" />
<rect x="35" y="7" width="7" height="7" fill="#C7DCD0" />
<rect x="0" y="14" width="7" height="7" fill="#9BABB2" />
<rect x="7" y="14" width="7" height="7" fill="#9BABB2" />
<rect x="14" y="14" width="7" height="7" fill="#9BABB2" />
<rect x="21" y="14" width="7" height="7" fill="#C7DCD0" />
<rect x="28" y="14" width="7" height="7" fill="#9BABB2" />
<rect x="35" y="14" width="7" height="7" fill="#C7DCD0" />
<rect x="0" y="21" width="7" height="7" fill="#9BABB2" />
<rect x="7" y="21" width="7" height="7" fill="#9BABB2" />
<rect x="14" y="21" width="7" height="7" fill="#C7DCD0" />
<rect x="21" y="21" width="7" height="7" fill="#FFFFFF" />
<rect x="28" y="21" width="7" height="7" fill="#9BABB2" />
<rect x="35" y="21" width="7" height="7" fill="#C7DCD0" />
<rect x="0" y="28" width="7" height="7" fill="#9BABB2" />
<rect x="7" y="28" width="7" height="7" fill="#C7DCD0" />
<rect x="14" y="28" width="7" height="7" fill="#FFFFFF" />
<rect x="28" y="28" width="7" height="7" fill="#9BABB2" />
<rect x="35" y="28" width="7" height="7" fill="#C7DCD0" />
<rect x="0" y="35" width="7" height="7" fill="#C7DCD0" />
<rect x="7" y="35" width="7" height="7" fill="#FFFFFF" />
<rect x="28" y="35" width="7" height="7" fill="#C7DCD0" />
<rect x="35" y="35" width="7" height="7" fill="#FFFFFF" />
</svg>